<svg xmlns="http://www.w3.org/2000/svg" viewBox="0 0 581 261" role="img" aria-labelledby="title desc">
  <title id="title">Oscal SRL Importaciones</title>
  <desc id="desc">Reconstrucción vectorial del cartel original, con contornos continuos y la inclinación de la referencia.</desc>
  <!-- Cuatro segmentos rectos, sin ruido de la fotografía. -->
  <path fill="#ed4c55" d="M4 83 573 43 579 198 3 216Z"/>
  <!-- Moño con curvas Bézier cerradas y ribete continuo. -->
  <g fill="#ed4c55" stroke="#f5f4e9" stroke-width="1.6" stroke-linejoin="round">
    <path d="M260 40C254 22 238 8 219 8C200 7 188 19 187 33C185 52 204 65 244 53C220 55 204 48 203 37C201 27 210 19 222 20C237 19 249 29 260 40Z"/>
    <path d="M287 39C293 20 311 4 331 4C349 3 360 12 360 26C361 46 340 56 302 49C326 47 344 39 344 27C344 20 337 14 329 15C313 15 298 28 287 39Z"/>
    <path d="M131 49C139 51 146 47 151 45C166 64 181 69 200 69C220 69 237 63 251 57C232 73 213 77 192 76C165 75 143 66 131 49Z"/>
    <path d="M300 55C323 64 348 62 366 50C383 39 392 28 405 30C415 30 422 39 427 45L422 52C417 46 411 43 404 44C393 45 382 53 369 59C343 73 319 68 300 55Z"/>
    <path d="M285 53C285 59 280 64 274 64C268 64 263 60 263 54C263 48 268 43 274 43C280 43 285 47 285 53Z"/>
  </g>
  <!-- Letras como contornos; sin fuentes externas. -->
  <g fill="#f5f4e9" fill-rule="evenodd">
    <path id="letter-o" d="M82 99C49 99 30 120 30 148C30 177 49 194 80 193C113 192 133 172 133 144C134 116 115 97 82 99ZM82 120C71 120 66 131 66 146C66 162 71 172 81 171C92 171 97 160 97 145C97 129 92 119 82 120Z"/>
    <path id="letter-s" d="M193 95 217 94 217 124 194 125C192 115 188 111 180 111C173 111 169 115 169 121C169 127 177 128 188 130C210 134 221 142 221 159C221 179 206 190 187 190C176 190 167 186 161 181L161 188 140 189 140 157 163 156C165 167 170 172 178 172C186 172 190 168 190 162C190 156 183 153 171 151C150 147 138 140 138 122C138 105 151 94 169 93C180 93 187 97 193 102Z"/>
    <path id="letter-c" d="M294 94 318 93 318 130 291 131C289 120 285 115 278 115C268 115 262 126 262 141C262 158 267 167 278 167C286 167 291 161 293 151L319 150C317 174 302 187 277 188C246 190 227 171 227 142C226 113 244 94 271 93C281 93 288 97 294 103Z"/>
    <path id="letter-a" d="M326 122C326 100 343 90 367 89C396 87 409 99 409 121L410 159 420 159 420 180 380 182 379 170C372 180 362 185 348 185C331 185 322 175 321 158C320 135 339 125 378 125L378 119C378 111 374 107 367 108C359 108 354 112 354 121ZM378 142C362 142 352 147 352 157C352 165 357 169 363 168C373 168 378 158 378 146Z"/>
    <path id="letter-l" d="M423 67 466 65 469 159 479 159 479 179 425 181 425 161 436 160 433 85 423 85Z"/>
    <path id="letter-small-s" d="M509 156 513 156 513 163 508 163C506 159 503 159 501 160C498 162 502 163 505 163C512 164 515 166 515 171C515 176 511 178 505 178C501 178 498 177 497 176L497 178 493 178 493 170 498 170C500 174 503 175 506 173C509 171 505 170 501 169C496 168 493 166 493 162C493 157 497 155 502 155C505 155 507 156 509 157Z"/>
    <path id="letter-small-r" d="M518 156 529 156 529 159C532 153 539 154 539 159C539 164 532 166 532 160C530 160 529 163 529 166L529 172 533 172 533 175 518 176 518 173 521 173 521 160 518 160Z"/>
    <path id="letter-small-l" d="M541 147 552 146 552 171 556 171 556 175 541 175 541 172 544 172 544 151 541 151Z"/>
  </g>
  <path fill="#292d4b" d="M43 207 555 190 560 244 38 259Z"/>
  <!-- Rótulo sobre una única línea inclinada; astas rectas. -->
  <g transform="matrix(.922 -.03135 0 1 108 215)" fill="#f5f4e9" fill-rule="evenodd">
    <path d="M0 0H10V36H0Z"/>
    <path d="M16 0H29L35 22 41 0H54V36H45V12L39 36H31L25 12V36H16Z"/>
    <path d="M60 0H75C85 0 90 4 90 12C90 20 85 25 75 25H70V36H60ZM70 8V17H74C78 17 80 16 80 12C80 9 78 8 74 8Z"/>
    <path d="M108 0C97 0 91 6 91 18C91 30 97 37 108 37C119 37 125 30 125 18C125 6 119 0 108 0ZM108 8C103 8 102 12 102 18C102 25 103 29 108 29C113 29 114 25 114 18C114 12 113 8 108 8Z"/>
    <path d="M130 0H147C157 0 162 4 162 11C162 17 159 20 154 22L163 36H151L143 23H140V36H130ZM140 8V16H146C150 16 152 15 152 12C152 9 150 8 146 8Z"/>
    <path d="M164 0H196V9H185V36H175V9H164Z"/>
    <path d="M207 0H220L232 36H221L219 29H207L205 36H194ZM213 9 209 21H217Z"/>
    <path d="M249 0C260 0 265 6 266 14H255C254 10 253 8 249 8C244 8 242 12 242 18C242 25 244 29 249 29C253 29 254 26 255 22H266C265 32 260 37 249 37C238 37 231 30 231 18C231 6 238 0 249 0Z"/>
    <path d="M271 0H281V36H271Z"/>
    <path d="M303 0C292 0 286 6 286 18C286 30 292 37 303 37C314 37 320 30 320 18C320 6 314 0 303 0ZM303 8C298 8 297 12 297 18C297 25 298 29 303 29C308 29 309 25 309 18C309 12 308 8 303 8Z"/>
    <path d="M325 0H335L348 21V0H358V36H348L335 15V36H325Z"/>
    <path d="M364 0H392V8H374V14H390V22H374V28H392V36H364Z"/>
    <path d="M427 11H417C416 8 414 7 411 7C407 7 406 9 406 11C406 13 409 14 414 15C423 17 428 20 428 26C428 34 422 38 411 38C401 38 395 33 394 26H405C406 29 408 30 412 30C416 30 418 29 418 27C418 24 414 24 409 22C400 20 396 17 396 11C396 4 402 0 412 0C421 0 426 4 427 11Z"/>
  </g>
  <g fill="#ed4c55">
    <path d="M65 229 92 228C98 228 98 236 92 236L65 237C59 237 59 229 65 229Z"/>
    <path d="M512 215 539 214C545 214 545 222 539 222L512 223C506 223 506 215 512 215Z"/>
  </g>
</svg>
